<svg width="610" height="82" viewBox="0 0 610 82" fill="none" xmlns="http://www.w3.org/2000/svg">
<path d="M73.856 0.512001C75.0507 0.512001 76.5013 1.32267 78.208 2.944C80 4.48 80.896 5.80267 80.896 6.912C80.896 12.1173 80.7253 19.2427 80.384 28.288C80.2987 30.5067 80.2133 33.1947 80.128 36.352C80.0427 39.424 80 43.008 80 47.104C80 60.0747 80.768 69.632 82.304 75.776C82.2187 77.824 81.408 79.3173 79.872 80.256C78.336 81.1093 76.8 81.536 75.264 81.536C71.8507 81.536 69.5893 80.3413 68.48 77.952C67.456 75.5627 66.944 72.1493 66.944 67.712C66.944 51.2427 67.1147 36.096 67.456 22.272C57.6427 33.1947 50.0053 42.368 44.544 49.792C44.544 49.792 43.776 50.304 42.24 51.328C40.7893 52.608 39.5947 53.248 38.656 53.248C36.4373 53.248 34.6027 52.6933 33.152 51.584C31.7013 50.4747 30.2933 48.8533 28.928 46.72L22.784 38.016C18.5173 32.0427 15.4027 27.52 13.44 24.448C13.44 32.2987 13.824 42.9653 14.592 56.448C15.1893 64.2133 15.488 70.0587 15.488 73.984C15.488 76.032 14.976 77.7813 13.952 79.232C12.928 80.5973 11.3067 81.28 9.088 81.28C6.86933 81.28 5.03467 80.8533 3.584 80C2.21867 79.1467 1.49333 77.8667 1.408 76.16C1.49333 74.7093 1.536 72.32 1.536 68.992C1.536 62.336 1.32267 54.2293 0.896 44.672L0.64 37.76L0.384 28.8C0.298666 26.1547 0.213333 23.0827 0.128 19.584C0.0426668 16 0 12.1173 0 7.936C0 2.816 2.77333 0.256004 8.32 0.256004C10.0267 0.256004 11.7333 0.682671 13.44 1.536C15.232 2.38934 16.5547 3.62667 17.408 5.248C18.0907 8.23467 20.608 13.184 24.96 20.096C29.312 27.008 33.5787 33.4933 37.76 39.552C41.5147 34.7733 44.5867 31.1893 46.976 28.8C51.072 24.6187 54.4427 20.736 57.088 17.152C59.8187 13.568 62.7627 9.25867 65.92 4.224C66.688 3.2 67.7973 2.34667 69.248 1.664C70.6987 0.896001 72.2347 0.512001 73.856 0.512001Z" fill="#545454"/>
<path d="M163.089 6.272C163.089 7.808 161.766 10.0693 159.121 13.056C157.244 15.1893 153.148 21.0347 146.833 30.592C141.457 38.6987 137.318 44.7147 134.417 48.64C134.502 57.7707 134.844 64.4693 135.441 68.736C135.697 71.296 135.825 73.1307 135.825 74.24C135.825 77.056 135.313 78.976 134.289 80C133.35 80.9387 131.686 81.408 129.297 81.408C127.505 81.408 125.798 80.896 124.177 79.872C122.641 78.7627 121.873 77.44 121.873 75.904C121.873 71.4667 121.745 63.1893 121.489 51.072C121.489 50.4747 120.721 48.896 119.185 46.336C117.82 43.9467 114.449 39.3387 109.073 32.512C103.868 25.7707 99.9423 20.48 97.297 16.64C94.737 12.7147 93.457 9.728 93.457 7.68C93.457 5.888 94.2677 4.48 95.889 3.456C97.5957 2.34667 99.4303 1.792 101.393 1.792C103.868 1.792 105.873 2.944 107.409 5.248C108.262 6.44267 109.585 8.74667 111.377 12.16C112.657 14.6347 114.108 17.2373 115.729 19.968C117.35 22.6987 118.844 24.9173 120.209 26.624L123.793 30.976C126.353 34.048 127.633 35.6267 127.633 35.712C130.193 33.152 132.497 30.336 134.545 27.264C136.593 24.1067 139.068 20.096 141.969 15.232L146.833 7.296L149.009 3.968C149.777 2.944 150.673 2.13333 151.697 1.536C152.721 0.938667 154.129 0.639999 155.921 0.639999C157.542 0.639999 159.121 1.10933 160.657 2.048C162.278 2.98667 163.089 4.39467 163.089 6.272Z" fill="#545454"/>
<path d="M205.116 47.488C209.041 47.488 211.004 49.7067 211.004 54.144C211.004 56.448 210.193 58.112 208.572 59.136C207.036 60.16 205.116 60.672 202.812 60.672C202.129 60.672 201.404 60.6293 200.636 60.544C199.868 60.4587 199.057 60.3733 198.204 60.288C195.644 59.8613 193.34 59.648 191.292 59.648C189.841 59.648 187.665 59.8187 184.764 60.16C181.692 60.5013 179.345 60.672 177.724 60.672C175.42 60.672 173.372 60.2453 171.58 59.392C169.788 58.4533 168.892 56.9173 168.892 54.784C168.892 51.7973 170.001 49.8773 172.22 49.024C174.439 48.0853 177.553 47.616 181.564 47.616L185.788 47.744C187.836 47.9147 189.415 48 190.524 48L199.868 47.744L205.116 47.488Z" fill="#545454"/>
<path d="M281.323 35.584C281.238 34.2187 281.195 32.1707 281.195 29.44V24.576C281.195 21.3333 281.11 18.9013 280.939 17.28C280.768 15.9147 280.683 12.3733 280.683 6.656C280.683 4.608 281.28 3.02933 282.475 1.92C283.755 0.725332 285.462 0.127998 287.595 0.127998C290.326 0.127998 292.16 0.725332 293.099 1.92C294.038 3.11466 294.507 5.07733 294.507 7.808V12.672L294.379 26.752C294.294 29.4827 294.251 33.5787 294.251 39.04L294.379 49.536C294.464 51.1573 294.507 53.4187 294.507 56.32C294.507 58.624 294.592 61.9093 294.763 66.176C294.934 70.1013 295.019 73.0453 295.019 75.008C295.019 76.6293 294.55 78.1227 293.611 79.488C292.758 80.8533 291.563 81.536 290.027 81.536C284.054 81.536 281.067 79.5307 281.067 75.52C281.067 73.3013 281.152 70.8267 281.323 68.096C281.494 66.1333 281.579 63.1467 281.579 59.136C281.579 56.32 281.494 52.2667 281.323 46.976C277.312 47.3173 270.4 47.488 260.587 47.488C254.443 47.488 249.664 47.488 246.251 47.488C242.838 47.4027 240.363 47.1893 238.827 46.848L238.699 61.568C238.699 62.5067 238.912 65.024 239.339 69.12C239.766 71.8507 239.979 74.24 239.979 76.288C239.979 77.568 239.211 78.8053 237.675 80C236.224 81.1093 234.859 81.664 233.579 81.664C230.507 81.664 228.416 80.9387 227.307 79.488C226.198 77.952 225.643 75.648 225.643 72.576L225.515 62.464C225.43 61.2693 225.387 59.6053 225.387 57.472C225.387 54.3147 225.302 50.0053 225.131 44.544C224.96 39.5947 224.875 36.0107 224.875 33.792C224.875 30.464 224.96 25.8133 225.131 19.84C225.302 14.208 225.387 10.0267 225.387 7.296C225.387 4.56534 226.07 2.73067 227.435 1.792C228.8 0.853335 230.336 0.384003 232.043 0.384003C236.822 0.384003 239.211 1.96267 239.211 5.12C239.211 10.752 239.083 16.128 238.827 21.248C238.656 27.7333 238.571 32.4693 238.571 35.456C241.046 36.0533 243.648 36.4373 246.379 36.608C249.11 36.7787 252.95 36.864 257.899 36.864C267.968 36.864 275.776 36.4373 281.323 35.584Z" fill="#545454"/>
<path d="M348.7 0C354.417 0 359.623 0.725334 364.316 2.176C369.009 3.54133 372.849 5.58933 375.836 8.32C381.212 13.184 384.967 18.5173 387.1 24.32C389.319 30.0373 390.428 37.376 390.428 46.336C390.428 48.2133 390.172 49.92 389.66 51.456C389.233 52.992 388.508 54.9547 387.484 57.344C386.204 59.9893 385.436 62.08 385.18 63.616C383.473 66.6027 380.657 69.4613 376.732 72.192C372.892 74.9227 368.711 77.1413 364.188 78.848C359.665 80.5547 355.697 81.408 352.284 81.408C335.815 81.408 324.081 75.776 317.084 64.512C315.121 61.3547 313.585 58.0693 312.476 54.656C311.452 51.2427 310.94 47.9147 310.94 44.672C310.94 35.968 312.476 28.416 315.548 22.016C318.705 15.5307 323.057 10.496 328.604 6.912C331.932 4.94934 335.388 3.328 338.972 2.048C342.641 0.682668 345.884 0 348.7 0ZM324.252 45.056C324.252 49.664 325.276 53.4613 327.324 56.448C329.457 59.4347 332.7 62.6773 337.052 66.176C340.636 67.5413 343.068 68.4373 344.348 68.864C345.628 69.2053 347.079 69.376 348.7 69.376C357.319 69.376 364.188 67.0293 369.308 62.336C374.428 57.6427 376.988 51.2 376.988 43.008C376.988 36.5227 376.263 31.4027 374.812 27.648C373.361 23.8933 370.759 20.5227 367.004 17.536C365.041 15.9147 362.524 14.72 359.452 13.952C356.465 13.184 353.223 12.8 349.724 12.8C344.433 12.8 339.868 14.3787 336.028 17.536C332.188 20.608 329.244 24.6187 327.196 29.568C325.233 34.5173 324.252 39.68 324.252 45.056Z" fill="#545454"/>
<path d="M480.106 0.512001C481.301 0.512001 482.751 1.32267 484.458 2.944C486.25 4.48 487.146 5.80267 487.146 6.912C487.146 12.1173 486.975 19.2427 486.634 28.288C486.549 30.5067 486.463 33.1947 486.378 36.352C486.293 39.424 486.25 43.008 486.25 47.104C486.25 60.0747 487.018 69.632 488.554 75.776C488.469 77.824 487.658 79.3173 486.122 80.256C484.586 81.1093 483.05 81.536 481.514 81.536C478.101 81.536 475.839 80.3413 474.73 77.952C473.706 75.5627 473.194 72.1493 473.194 67.712C473.194 51.2427 473.365 36.096 473.706 22.272C463.893 33.1947 456.255 42.368 450.794 49.792C450.794 49.792 450.026 50.304 448.49 51.328C447.039 52.608 445.845 53.248 444.906 53.248C442.687 53.248 440.853 52.6933 439.402 51.584C437.951 50.4747 436.543 48.8533 435.178 46.72L429.034 38.016C424.767 32.0427 421.653 27.52 419.69 24.448C419.69 32.2987 420.074 42.9653 420.842 56.448C421.439 64.2133 421.738 70.0587 421.738 73.984C421.738 76.032 421.226 77.7813 420.202 79.232C419.178 80.5973 417.557 81.28 415.338 81.28C413.119 81.28 411.285 80.8533 409.834 80C408.469 79.1467 407.743 77.8667 407.658 76.16C407.743 74.7093 407.786 72.32 407.786 68.992C407.786 62.336 407.573 54.2293 407.146 44.672L406.89 37.76L406.634 28.8C406.549 26.1547 406.463 23.0827 406.378 19.584C406.293 16 406.25 12.1173 406.25 7.936C406.25 2.816 409.023 0.256004 414.57 0.256004C416.277 0.256004 417.983 0.682671 419.69 1.536C421.482 2.38934 422.805 3.62667 423.658 5.248C424.341 8.23467 426.858 13.184 431.21 20.096C435.562 27.008 439.829 33.4933 444.01 39.552C447.765 34.7733 450.837 31.1893 453.226 28.8C457.322 24.6187 460.693 20.736 463.338 17.152C466.069 13.568 469.013 9.25867 472.17 4.224C472.938 3.2 474.047 2.34667 475.498 1.664C476.949 0.896001 478.485 0.512001 480.106 0.512001Z" fill="#545454"/>
<path d="M565.115 73.216C565.2 75.008 564.987 76.288 564.475 77.056C563.963 77.7387 562.939 78.464 561.403 79.232C559.099 80.3413 556.368 81.0667 553.211 81.408C550.139 81.7493 546.171 81.92 541.307 81.92H532.603C525.008 81.92 519.376 80.64 515.707 78.08C512.038 75.4347 509.734 72.2773 508.795 68.608C507.856 64.9387 507.302 60.2027 507.131 54.4C507.046 52.4373 507.003 49.536 507.003 45.696C507.003 37.3333 507.728 26.1547 509.179 12.16C509.606 8.064 511.099 5.12 513.659 3.328C516.219 1.45067 519.12 0.512001 522.363 0.512001C525.008 0.512001 529.318 0.426669 535.291 0.256004L546.555 0.127998C551.163 0.127998 554.491 0.255999 556.539 0.512001C559.099 1.024 561.019 1.62133 562.299 2.304C563.579 2.90134 564.262 3.968 564.347 5.504C564.347 7.21067 563.792 8.87467 562.683 10.496C561.574 12.1173 559.867 12.928 557.563 12.928C554.918 12.928 551.12 12.7573 546.171 12.416C541.222 12.0747 537.467 11.904 534.907 11.904C532.603 11.904 530.512 12.032 528.635 12.288C526.246 12.4587 524.539 12.7573 523.515 13.184C522.491 13.6107 521.936 14.336 521.851 15.36C520.912 24.6613 520.528 31.1467 520.699 34.816C522.662 35.072 524.624 35.2 526.587 35.2C528.55 35.2 531.238 35.0293 534.651 34.688C535.504 34.6027 536.571 34.5173 537.851 34.432C539.131 34.3467 540.582 34.304 542.203 34.304C543.142 34.304 544.635 34.3893 546.683 34.56L550.651 34.688C554.576 34.688 556.539 36.096 556.539 38.912C556.539 40.6187 556.07 41.984 555.131 43.008C554.192 44.032 552.528 44.8 550.139 45.312C546.896 45.9093 541.648 46.208 534.395 46.208H526.587C524.966 46.208 522.96 46.1227 520.571 45.952C520.486 47.488 520.443 49.7067 520.443 52.608C520.443 56.3627 520.486 59.008 520.571 60.544C520.827 66.5173 524.966 69.504 532.987 69.504C535.718 69.504 538.619 69.5893 541.691 69.76L546.427 69.888C548.646 69.888 550.48 69.6747 551.931 69.248C553.382 68.736 554.79 68.3093 556.155 67.968C557.606 67.5413 558.928 67.328 560.123 67.328C561.744 67.328 562.982 67.968 563.835 69.248C564.688 70.4427 565.115 71.7653 565.115 73.216Z" fill="#545454"/>
<path d="M609.784 77.908C609.784 87.573 601.949 76.408 592.284 76.408C582.619 76.408 574.784 87.573 574.784 77.908C574.784 68.243 582.619 60.408 592.284 60.408C601.949 60.408 609.784 68.243 609.784 77.908Z" fill="#0873BB"/>
</svg>
